<?xml version="1.0" encoding="UTF-8" standalone="no"?>
<!DOCTYPE svg PUBLIC "-//W3C//DTD SVG 1.1//EN"
 "http://www.w3.org/Graphics/SVG/1.1/DTD/svg11.dtd">
<!-- Generated by graphviz version 12.2.0 (20241103.1931)
 -->
<!-- Pages: 1 -->
<svg width="2365pt" height="548pt"
 viewBox="0.00 0.00 2364.88 548.00" xmlns="http://www.w3.org/2000/svg" xmlns:xlink="http://www.w3.org/1999/xlink">
<g id="graph0" class="graph" transform="scale(1 1) rotate(0) translate(4 544)">
<polygon fill="white" stroke="none" points="-4,4 -4,-544 2360.88,-544 2360.88,4 -4,4"/>
<!-- 0 -->
<g id="node1" class="node">
<title>0</title>
<polygon fill="none" stroke="black" points="1062.5,-540 963.25,-540 963.25,-504 1062.5,-504 1062.5,-540"/>
<text text-anchor="middle" x="1012.88" y="-515.83" font-family="Times,serif" font-size="14.00">&quot;Kind: ROOT&quot;</text>
</g>
<!-- 1 -->
<g id="node2" class="node">
<title>1</title>
<polygon fill="none" stroke="black" points="827.5,-468 692.25,-468 692.25,-432 827.5,-432 827.5,-468"/>
<text text-anchor="middle" x="759.88" y="-443.82" font-family="Times,serif" font-size="14.00">&quot;Kind: PREAMBLE&quot;</text>
</g>
<!-- 0&#45;&gt;1 -->
<g id="edge22" class="edge">
<title>0&#45;&gt;1</title>
<path fill="none" stroke="black" d="M962.89,-507.17C926.01,-496.97 875.23,-482.92 833.68,-471.42"/>
<polygon fill="black" stroke="black" points="834.81,-468.1 824.24,-468.81 832.94,-474.85 834.81,-468.1"/>
</g>
<!-- 23 -->
<g id="node24" class="node">
<title>23</title>
<polygon fill="none" stroke="black" points="1454,-468 1291.75,-468 1291.75,-432 1454,-432 1454,-468"/>
<text text-anchor="middle" x="1372.88" y="-443.82" font-family="Times,serif" font-size="14.00">&quot;Kind: ENVIRONMENT&quot;</text>
</g>
<!-- 0&#45;&gt;23 -->
<g id="edge58" class="edge">
<title>0&#45;&gt;23</title>
<path fill="none" stroke="black" d="M1062.93,-511.27C1119.05,-500.36 1211.25,-482.43 1280.53,-468.96"/>
<polygon fill="black" stroke="black" points="1280.8,-472.47 1289.95,-467.12 1279.47,-465.6 1280.8,-472.47"/>
</g>
<!-- 2 -->
<g id="node3" class="node">
<title>2</title>
<polygon fill="none" stroke="black" points="557.12,-396 386.62,-396 386.62,-360 557.12,-360 557.12,-396"/>
<text text-anchor="middle" x="471.88" y="-371.82" font-family="Times,serif" font-size="14.00">&quot;Kind: CLASS_INCLUDE&quot;</text>
</g>
<!-- 1&#45;&gt;2 -->
<g id="edge14" class="edge">
<title>1&#45;&gt;2</title>
<path fill="none" stroke="black" d="M691.99,-432.5C650.99,-422.53 598.44,-409.76 554.97,-399.2"/>
<polygon fill="black" stroke="black" points="555.85,-395.81 545.3,-396.85 554.19,-402.61 555.85,-395.81"/>
</g>
<!-- 16 -->
<g id="node17" class="node">
<title>16</title>
<polygon fill="none" stroke="black" points="856,-396 663.75,-396 663.75,-360 856,-360 856,-396"/>
<text text-anchor="middle" x="759.88" y="-371.82" font-family="Times,serif" font-size="14.00">&quot;Kind: PACKAGE_INCLUDE&quot;</text>
</g>
<!-- 1&#45;&gt;16 -->
<g id="edge21" class="edge">
<title>1&#45;&gt;16</title>
<path fill="none" stroke="black" d="M759.88,-431.7C759.88,-424.41 759.88,-415.73 759.88,-407.54"/>
<polygon fill="black" stroke="black" points="763.38,-407.62 759.88,-397.62 756.38,-407.62 763.38,-407.62"/>
</g>
<!-- 3 -->
<g id="node4" class="node">
<title>3</title>
<polygon fill="none" stroke="black" points="115.75,-324 0,-324 0,-288 115.75,-288 115.75,-324"/>
<text text-anchor="middle" x="57.88" y="-299.82" font-family="Times,serif" font-size="14.00">&quot;\\documentclass&quot;</text>
</g>
<!-- 2&#45;&gt;3 -->
<g id="edge1" class="edge">
<title>2&#45;&gt;3</title>
<path fill="none" stroke="black" d="M386.35,-366.43C318.34,-357.45 220.58,-343.3 127.18,-324.58"/>
<polygon fill="black" stroke="black" points="128.08,-321.2 117.59,-322.64 126.69,-328.06 128.08,-321.2"/>
</g>
<!-- 4 -->
<g id="node5" class="node">
<title>4</title>
<polygon fill="none" stroke="black" points="380.38,-324 133.38,-324 133.38,-288 380.38,-288 380.38,-324"/>
<text text-anchor="middle" x="256.88" y="-299.82" font-family="Times,serif" font-size="14.00">&quot;Kind: BRACK_GROUP_KEY_VALUE&quot;</text>
</g>
<!-- 2&#45;&gt;4 -->
<g id="edge8" class="edge">
<title>2&#45;&gt;4</title>
<path fill="none" stroke="black" d="M418.18,-359.52C388.69,-349.92 351.93,-337.95 320.96,-327.86"/>
<polygon fill="black" stroke="black" points="322.29,-324.62 311.7,-324.85 320.13,-331.27 322.29,-324.62"/>
</g>
<!-- 11 -->
<g id="node12" class="node">
<title>11</title>
<polygon fill="none" stroke="black" points="642.88,-324 398.88,-324 398.88,-288 642.88,-288 642.88,-324"/>
<text text-anchor="middle" x="520.88" y="-299.82" font-family="Times,serif" font-size="14.00">&quot;Kind: CURLY_GROUP_WORD_LIST&quot;</text>
</g>
<!-- 2&#45;&gt;11 -->
<g id="edge13" class="edge">
<title>2&#45;&gt;11</title>
<path fill="none" stroke="black" d="M483.99,-359.7C489.57,-351.73 496.31,-342.1 502.49,-333.26"/>
<polygon fill="black" stroke="black" points="505.17,-335.54 508.03,-325.34 499.43,-331.53 505.17,-335.54"/>
</g>
<!-- 5 -->
<g id="node6" class="node">
<title>5</title>
<polygon fill="none" stroke="black" points="127.88,-252 73.88,-252 73.88,-216 127.88,-216 127.88,-252"/>
<text text-anchor="middle" x="100.88" y="-227.82" font-family="Times,serif" font-size="14.00">&quot;[&quot;</text>
</g>
<!-- 4&#45;&gt;5 -->
<g id="edge2" class="edge">
<title>4&#45;&gt;5</title>
<path fill="none" stroke="black" d="M216.76,-287.59C195.67,-278.36 169.19,-266.67 138.48,-252.69"/>
<polygon fill="black" stroke="black" points="140.29,-249.67 129.74,-248.69 137.38,-256.03 140.29,-249.67"/>
</g>
<!-- 6 -->
<g id="node7" class="node">
<title>6</title>
<polygon fill="none" stroke="black" points="332,-252 145.75,-252 145.75,-216 332,-216 332,-252"/>
<text text-anchor="middle" x="238.88" y="-227.82" font-family="Times,serif" font-size="14.00">&quot;Kind: KEY_VALUE_BODY&quot;</text>
</g>
<!-- 4&#45;&gt;6 -->
<g id="edge6" class="edge">
<title>4&#45;&gt;6</title>
<path fill="none" stroke="black" d="M252.43,-287.7C250.53,-280.32 248.27,-271.52 246.14,-263.25"/>
<polygon fill="black" stroke="black" points="249.53,-262.38 243.65,-253.57 242.75,-264.13 249.53,-262.38"/>
</g>
<!-- 10 -->
<g id="node11" class="node">
<title>10</title>
<polygon fill="none" stroke="black" points="403.88,-252 349.88,-252 349.88,-216 403.88,-216 403.88,-252"/>
<text text-anchor="middle" x="376.88" y="-227.82" font-family="Times,serif" font-size="14.00">&quot;]&quot;</text>
</g>
<!-- 4&#45;&gt;10 -->
<g id="edge7" class="edge">
<title>4&#45;&gt;10</title>
<path fill="none" stroke="black" d="M286.85,-287.52C302.98,-278.11 323.01,-266.42 340.09,-256.46"/>
<polygon fill="black" stroke="black" points="341.56,-259.65 348.44,-251.59 338.03,-253.61 341.56,-259.65"/>
</g>
<!-- 7 -->
<g id="node8" class="node">
<title>7</title>
<polygon fill="none" stroke="black" points="328.25,-180 149.5,-180 149.5,-144 328.25,-144 328.25,-180"/>
<text text-anchor="middle" x="238.88" y="-155.82" font-family="Times,serif" font-size="14.00">&quot;Kind: KEY_VALUE_PAIR&quot;</text>
</g>
<!-- 6&#45;&gt;7 -->
<g id="edge5" class="edge">
<title>6&#45;&gt;7</title>
<path fill="none" stroke="black" d="M238.88,-215.7C238.88,-208.41 238.88,-199.73 238.88,-191.54"/>
<polygon fill="black" stroke="black" points="242.38,-191.62 238.88,-181.62 235.38,-191.62 242.38,-191.62"/>
</g>
<!-- 8 -->
<g id="node9" class="node">
<title>8</title>
<polygon fill="none" stroke="black" points="284,-108 193.75,-108 193.75,-72 284,-72 284,-108"/>
<text text-anchor="middle" x="238.88" y="-83.83" font-family="Times,serif" font-size="14.00">&quot;Kind: KEY&quot;</text>
</g>
<!-- 7&#45;&gt;8 -->
<g id="edge4" class="edge">
<title>7&#45;&gt;8</title>
<path fill="none" stroke="black" d="M238.88,-143.7C238.88,-136.41 238.88,-127.73 238.88,-119.54"/>
<polygon fill="black" stroke="black" points="242.38,-119.62 238.88,-109.62 235.38,-119.62 242.38,-119.62"/>
</g>
<!-- 9 -->
<g id="node10" class="node">
<title>9</title>
<polygon fill="none" stroke="black" points="265.88,-36 211.88,-36 211.88,0 265.88,0 265.88,-36"/>
<text text-anchor="middle" x="238.88" y="-11.82" font-family="Times,serif" font-size="14.00">&quot;10pt&quot;</text>
</g>
<!-- 8&#45;&gt;9 -->
<g id="edge3" class="edge">
<title>8&#45;&gt;9</title>
<path fill="none" stroke="black" d="M238.88,-71.7C238.88,-64.41 238.88,-55.73 238.88,-47.54"/>
<polygon fill="black" stroke="black" points="242.38,-47.62 238.88,-37.62 235.38,-47.62 242.38,-47.62"/>
</g>
<!-- 12 -->
<g id="node13" class="node">
<title>12</title>
<polygon fill="none" stroke="black" points="475.88,-252 421.88,-252 421.88,-216 475.88,-216 475.88,-252"/>
<text text-anchor="middle" x="448.88" y="-227.82" font-family="Times,serif" font-size="14.00">&quot;{&quot;</text>
</g>
<!-- 11&#45;&gt;12 -->
<g id="edge9" class="edge">
<title>11&#45;&gt;12</title>
<path fill="none" stroke="black" d="M503.08,-287.7C494.6,-279.45 484.29,-269.43 474.94,-260.35"/>
<polygon fill="black" stroke="black" points="477.41,-257.86 467.8,-253.4 472.53,-262.88 477.41,-257.86"/>
</g>
<!-- 13 -->
<g id="node14" class="node">
<title>13</title>
<polygon fill="none" stroke="black" points="584,-252 493.75,-252 493.75,-216 584,-216 584,-252"/>
<text text-anchor="middle" x="538.88" y="-227.82" font-family="Times,serif" font-size="14.00">&quot;Kind: KEY&quot;</text>
</g>
<!-- 11&#45;&gt;13 -->
<g id="edge11" class="edge">
<title>11&#45;&gt;13</title>
<path fill="none" stroke="black" d="M525.32,-287.7C527.22,-280.32 529.48,-271.52 531.61,-263.25"/>
<polygon fill="black" stroke="black" points="535,-264.13 534.1,-253.57 528.22,-262.38 535,-264.13"/>
</g>
<!-- 15 -->
<g id="node16" class="node">
<title>15</title>
<polygon fill="none" stroke="black" points="655.88,-252 601.88,-252 601.88,-216 655.88,-216 655.88,-252"/>
<text text-anchor="middle" x="628.88" y="-227.82" font-family="Times,serif" font-size="14.00">&quot;}&quot;</text>
</g>
<!-- 11&#45;&gt;15 -->
<g id="edge12" class="edge">
<title>11&#45;&gt;15</title>
<path fill="none" stroke="black" d="M547.85,-287.52C561.48,-278.68 578.21,-267.84 592.92,-258.3"/>
<polygon fill="black" stroke="black" points="594.49,-261.46 600.97,-253.08 590.68,-255.59 594.49,-261.46"/>
</g>
<!-- 14 -->
<g id="node15" class="node">
<title>14</title>
<polygon fill="none" stroke="black" points="569.75,-180 508,-180 508,-144 569.75,-144 569.75,-180"/>
<text text-anchor="middle" x="538.88" y="-155.82" font-family="Times,serif" font-size="14.00">&quot;article&quot;</text>
</g>
<!-- 13&#45;&gt;14 -->
<g id="edge10" class="edge">
<title>13&#45;&gt;14</title>
<path fill="none" stroke="black" d="M538.88,-215.7C538.88,-208.41 538.88,-199.73 538.88,-191.54"/>
<polygon fill="black" stroke="black" points="542.38,-191.62 538.88,-181.62 535.38,-191.62 542.38,-191.62"/>
</g>
<!-- 17 -->
<g id="node18" class="node">
<title>17</title>
<polygon fill="none" stroke="black" points="758.75,-324 661,-324 661,-288 758.75,-288 758.75,-324"/>
<text text-anchor="middle" x="709.88" y="-299.82" font-family="Times,serif" font-size="14.00">&quot;\\usepackage&quot;</text>
</g>
<!-- 16&#45;&gt;17 -->
<g id="edge15" class="edge">
<title>16&#45;&gt;17</title>
<path fill="none" stroke="black" d="M747.52,-359.7C741.82,-351.73 734.95,-342.1 728.64,-333.26"/>
<polygon fill="black" stroke="black" points="731.63,-331.44 722.97,-325.34 725.94,-335.51 731.63,-331.44"/>
</g>
<!-- 18 -->
<g id="node19" class="node">
<title>18</title>
<polygon fill="none" stroke="black" points="1020.88,-324 776.88,-324 776.88,-288 1020.88,-288 1020.88,-324"/>
<text text-anchor="middle" x="898.88" y="-299.82" font-family="Times,serif" font-size="14.00">&quot;Kind: CURLY_GROUP_WORD_LIST&quot;</text>
</g>
<!-- 16&#45;&gt;18 -->
<g id="edge20" class="edge">
<title>16&#45;&gt;18</title>
<path fill="none" stroke="black" d="M794.59,-359.52C812.72,-350.39 835.11,-339.11 854.49,-329.35"/>
<polygon fill="black" stroke="black" points="855.89,-332.57 863.25,-324.94 852.74,-326.31 855.89,-332.57"/>
</g>
<!-- 19 -->
<g id="node20" class="node">
<title>19</title>
<polygon fill="none" stroke="black" points="835.88,-252 781.88,-252 781.88,-216 835.88,-216 835.88,-252"/>
<text text-anchor="middle" x="808.88" y="-227.82" font-family="Times,serif" font-size="14.00">&quot;{&quot;</text>
</g>
<!-- 18&#45;&gt;19 -->
<g id="edge16" class="edge">
<title>18&#45;&gt;19</title>
<path fill="none" stroke="black" d="M876.63,-287.7C865.59,-279.11 852.08,-268.61 840.04,-259.24"/>
<polygon fill="black" stroke="black" points="842.42,-256.65 832.37,-253.28 838.12,-262.18 842.42,-256.65"/>
</g>
<!-- 20 -->
<g id="node21" class="node">
<title>20</title>
<polygon fill="none" stroke="black" points="944,-252 853.75,-252 853.75,-216 944,-216 944,-252"/>
<text text-anchor="middle" x="898.88" y="-227.82" font-family="Times,serif" font-size="14.00">&quot;Kind: KEY&quot;</text>
</g>
<!-- 18&#45;&gt;20 -->
<g id="edge18" class="edge">
<title>18&#45;&gt;20</title>
<path fill="none" stroke="black" d="M898.88,-287.7C898.88,-280.41 898.88,-271.73 898.88,-263.54"/>
<polygon fill="black" stroke="black" points="902.38,-263.62 898.88,-253.62 895.38,-263.62 902.38,-263.62"/>
</g>
<!-- 22 -->
<g id="node23" class="node">
<title>22</title>
<polygon fill="none" stroke="black" points="1015.88,-252 961.88,-252 961.88,-216 1015.88,-216 1015.88,-252"/>
<text text-anchor="middle" x="988.88" y="-227.82" font-family="Times,serif" font-size="14.00">&quot;}&quot;</text>
</g>
<!-- 18&#45;&gt;22 -->
<g id="edge19" class="edge">
<title>18&#45;&gt;22</title>
<path fill="none" stroke="black" d="M921.12,-287.7C932.16,-279.11 945.67,-268.61 957.71,-259.24"/>
<polygon fill="black" stroke="black" points="959.63,-262.18 965.38,-253.28 955.33,-256.65 959.63,-262.18"/>
</g>
<!-- 21 -->
<g id="node22" class="node">
<title>21</title>
<polygon fill="none" stroke="black" points="938.75,-180 859,-180 859,-144 938.75,-144 938.75,-180"/>
<text text-anchor="middle" x="898.88" y="-155.82" font-family="Times,serif" font-size="14.00">&quot;geometry&quot;</text>
</g>
<!-- 20&#45;&gt;21 -->
<g id="edge17" class="edge">
<title>20&#45;&gt;21</title>
<path fill="none" stroke="black" d="M898.88,-215.7C898.88,-208.41 898.88,-199.73 898.88,-191.54"/>
<polygon fill="black" stroke="black" points="902.38,-191.62 898.88,-181.62 895.38,-191.62 902.38,-191.62"/>
</g>
<!-- 24 -->
<g id="node25" class="node">
<title>24</title>
<polygon fill="none" stroke="black" points="1278.75,-396 1175,-396 1175,-360 1278.75,-360 1278.75,-396"/>
<text text-anchor="middle" x="1226.88" y="-371.82" font-family="Times,serif" font-size="14.00">&quot;Kind: BEGIN&quot;</text>
</g>
<!-- 23&#45;&gt;24 -->
<g id="edge29" class="edge">
<title>23&#45;&gt;24</title>
<path fill="none" stroke="black" d="M1336.41,-431.52C1317.35,-422.38 1293.81,-411.09 1273.45,-401.33"/>
<polygon fill="black" stroke="black" points="1275.02,-398.2 1264.49,-397.04 1272,-404.52 1275.02,-398.2"/>
</g>
<!-- 31 -->
<g id="node32" class="node">
<title>31</title>
<polygon fill="none" stroke="black" points="1647,-396 1484.75,-396 1484.75,-360 1647,-360 1647,-396"/>
<text text-anchor="middle" x="1565.88" y="-371.82" font-family="Times,serif" font-size="14.00">&quot;Kind: ENVIRONMENT&quot;</text>
</g>
<!-- 23&#45;&gt;31 -->
<g id="edge49" class="edge">
<title>23&#45;&gt;31</title>
<path fill="none" stroke="black" d="M1421.08,-431.52C1447.2,-422.04 1479.68,-410.26 1507.26,-400.26"/>
<polygon fill="black" stroke="black" points="1508.32,-403.6 1516.53,-396.9 1505.93,-397.02 1508.32,-403.6"/>
</g>
<!-- 51 -->
<g id="node52" class="node">
<title>51</title>
<polygon fill="none" stroke="black" points="2009,-396 1918.75,-396 1918.75,-360 2009,-360 2009,-396"/>
<text text-anchor="middle" x="1963.88" y="-371.82" font-family="Times,serif" font-size="14.00">&quot;Kind: END&quot;</text>
</g>
<!-- 23&#45;&gt;51 -->
<g id="edge57" class="edge">
<title>23&#45;&gt;51</title>
<path fill="none" stroke="black" d="M1454.43,-439.34C1576.06,-424.93 1801.91,-398.18 1907.16,-385.72"/>
<polygon fill="black" stroke="black" points="1907.45,-389.21 1916.97,-384.56 1906.63,-382.26 1907.45,-389.21"/>
</g>
<!-- 25 -->
<g id="node26" class="node">
<title>25</title>
<polygon fill="none" stroke="black" points="1104.62,-324 1039.12,-324 1039.12,-288 1104.62,-288 1104.62,-324"/>
<text text-anchor="middle" x="1071.88" y="-299.82" font-family="Times,serif" font-size="14.00">&quot;\\begin&quot;</text>
</g>
<!-- 24&#45;&gt;25 -->
<g id="edge23" class="edge">
<title>24&#45;&gt;25</title>
<path fill="none" stroke="black" d="M1188.16,-359.52C1166.1,-349.55 1138.39,-337.04 1115.55,-326.73"/>
<polygon fill="black" stroke="black" points="1117.04,-323.56 1106.49,-322.63 1114.16,-329.94 1117.04,-323.56"/>
</g>
<!-- 26 -->
<g id="node27" class="node">
<title>26</title>
<polygon fill="none" stroke="black" points="1331.25,-324 1122.5,-324 1122.5,-288 1331.25,-288 1331.25,-324"/>
<text text-anchor="middle" x="1226.88" y="-299.82" font-family="Times,serif" font-size="14.00">&quot;Kind: CURLY_GROUP_WORD&quot;</text>
</g>
<!-- 24&#45;&gt;26 -->
<g id="edge28" class="edge">
<title>24&#45;&gt;26</title>
<path fill="none" stroke="black" d="M1226.88,-359.7C1226.88,-352.41 1226.88,-343.73 1226.88,-335.54"/>
<polygon fill="black" stroke="black" points="1230.38,-335.62 1226.88,-325.62 1223.38,-335.62 1230.38,-335.62"/>
</g>
<!-- 27 -->
<g id="node28" class="node">
<title>27</title>
<polygon fill="none" stroke="black" points="1092.88,-252 1038.88,-252 1038.88,-216 1092.88,-216 1092.88,-252"/>
<text text-anchor="middle" x="1065.88" y="-227.82" font-family="Times,serif" font-size="14.00">&quot;{&quot;</text>
</g>
<!-- 26&#45;&gt;27 -->
<g id="edge24" class="edge">
<title>26&#45;&gt;27</title>
<path fill="none" stroke="black" d="M1184.45,-287.51C1162.54,-278.37 1135.18,-266.77 1103.7,-252.75"/>
<polygon fill="black" stroke="black" points="1105.28,-249.62 1094.72,-248.73 1102.42,-256.01 1105.28,-249.62"/>
</g>
<!-- 28 -->
<g id="node29" class="node">
<title>28</title>
<polygon fill="none" stroke="black" points="1201,-252 1110.75,-252 1110.75,-216 1201,-216 1201,-252"/>
<text text-anchor="middle" x="1155.88" y="-227.82" font-family="Times,serif" font-size="14.00">&quot;Kind: KEY&quot;</text>
</g>
<!-- 26&#45;&gt;28 -->
<g id="edge26" class="edge">
<title>26&#45;&gt;28</title>
<path fill="none" stroke="black" d="M1209.32,-287.7C1200.9,-279.39 1190.64,-269.28 1181.37,-260.14"/>
<polygon fill="black" stroke="black" points="1183.88,-257.7 1174.3,-253.17 1178.97,-262.68 1183.88,-257.7"/>
</g>
<!-- 30 -->
<g id="node31" class="node">
<title>30</title>
<polygon fill="none" stroke="black" points="1272.88,-252 1218.88,-252 1218.88,-216 1272.88,-216 1272.88,-252"/>
<text text-anchor="middle" x="1245.88" y="-227.82" font-family="Times,serif" font-size="14.00">&quot;}&quot;</text>
</g>
<!-- 26&#45;&gt;30 -->
<g id="edge27" class="edge">
<title>26&#45;&gt;30</title>
<path fill="none" stroke="black" d="M1231.57,-287.7C1233.6,-280.24 1236.02,-271.32 1238.28,-262.97"/>
<polygon fill="black" stroke="black" points="1241.59,-264.13 1240.84,-253.57 1234.84,-262.3 1241.59,-264.13"/>
</g>
<!-- 29 -->
<g id="node30" class="node">
<title>29</title>
<polygon fill="none" stroke="black" points="1196.88,-180 1114.88,-180 1114.88,-144 1196.88,-144 1196.88,-180"/>
<text text-anchor="middle" x="1155.88" y="-155.82" font-family="Times,serif" font-size="14.00">&quot;document&quot;</text>
</g>
<!-- 28&#45;&gt;29 -->
<g id="edge25" class="edge">
<title>28&#45;&gt;29</title>
<path fill="none" stroke="black" d="M1155.88,-215.7C1155.88,-208.41 1155.88,-199.73 1155.88,-191.54"/>
<polygon fill="black" stroke="black" points="1159.38,-191.62 1155.88,-181.62 1152.38,-191.62 1159.38,-191.62"/>
</g>
<!-- 32 -->
<g id="node33" class="node">
<title>32</title>
<polygon fill="none" stroke="black" points="1452.75,-324 1349,-324 1349,-288 1452.75,-288 1452.75,-324"/>
<text text-anchor="middle" x="1400.88" y="-299.82" font-family="Times,serif" font-size="14.00">&quot;Kind: BEGIN&quot;</text>
</g>
<!-- 31&#45;&gt;32 -->
<g id="edge36" class="edge">
<title>31&#45;&gt;32</title>
<path fill="none" stroke="black" d="M1524.66,-359.52C1502.73,-350.21 1475.55,-338.68 1452.25,-328.79"/>
<polygon fill="black" stroke="black" points="1453.81,-325.66 1443.24,-324.97 1451.08,-332.1 1453.81,-325.66"/>
</g>
<!-- 39 -->
<g id="node40" class="node">
<title>39</title>
<polygon fill="none" stroke="black" points="1567.38,-324 1470.38,-324 1470.38,-288 1567.38,-288 1567.38,-324"/>
<text text-anchor="middle" x="1518.88" y="-299.82" font-family="Times,serif" font-size="14.00">&quot;Kind: TEXT&quot;</text>
</g>
<!-- 31&#45;&gt;39 -->
<g id="edge38" class="edge">
<title>31&#45;&gt;39</title>
<path fill="none" stroke="black" d="M1554.26,-359.7C1548.96,-351.81 1542.58,-342.3 1536.7,-333.55"/>
<polygon fill="black" stroke="black" points="1539.68,-331.71 1531.2,-325.36 1533.87,-335.61 1539.68,-331.71"/>
</g>
<!-- 41 -->
<g id="node42" class="node">
<title>41</title>
<polygon fill="none" stroke="black" points="1639.88,-324 1585.88,-324 1585.88,-288 1639.88,-288 1639.88,-324"/>
<text text-anchor="middle" x="1612.88" y="-299.82" font-family="Times,serif" font-size="14.00">&quot;=&quot;</text>
</g>
<!-- 31&#45;&gt;41 -->
<g id="edge39" class="edge">
<title>31&#45;&gt;41</title>
<path fill="none" stroke="black" d="M1577.49,-359.7C1582.79,-351.81 1589.17,-342.3 1595.05,-333.55"/>
<polygon fill="black" stroke="black" points="1597.88,-335.61 1600.55,-325.36 1592.07,-331.71 1597.88,-335.61"/>
</g>
<!-- 42 -->
<g id="node43" class="node">
<title>42</title>
<polygon fill="none" stroke="black" points="1755.38,-324 1658.38,-324 1658.38,-288 1755.38,-288 1755.38,-324"/>
<text text-anchor="middle" x="1706.88" y="-299.82" font-family="Times,serif" font-size="14.00">&quot;Kind: TEXT&quot;</text>
</g>
<!-- 31&#45;&gt;42 -->
<g id="edge41" class="edge">
<title>31&#45;&gt;42</title>
<path fill="none" stroke="black" d="M1601.09,-359.52C1619.48,-350.39 1642.19,-339.11 1661.85,-329.35"/>
<polygon fill="black" stroke="black" points="1663.35,-332.52 1670.75,-324.93 1660.24,-326.25 1663.35,-332.52"/>
</g>
<!-- 44 -->
<g id="node45" class="node">
<title>44</title>
<polygon fill="none" stroke="black" points="1864,-324 1773.75,-324 1773.75,-288 1864,-288 1864,-324"/>
<text text-anchor="middle" x="1818.88" y="-299.82" font-family="Times,serif" font-size="14.00">&quot;Kind: END&quot;</text>
</g>
<!-- 31&#45;&gt;44 -->
<g id="edge48" class="edge">
<title>31&#45;&gt;44</title>
<path fill="none" stroke="black" d="M1634.24,-359.6C1670.02,-350.3 1714.79,-338.38 1762.4,-324.66"/>
<polygon fill="black" stroke="black" points="1763.17,-328.09 1771.8,-321.94 1761.22,-321.36 1763.17,-328.09"/>
</g>
<!-- 33 -->
<g id="node34" class="node">
<title>33</title>
<polygon fill="none" stroke="black" points="1356.62,-252 1291.12,-252 1291.12,-216 1356.62,-216 1356.62,-252"/>
<text text-anchor="middle" x="1323.88" y="-227.82" font-family="Times,serif" font-size="14.00">&quot;\\begin&quot;</text>
</g>
<!-- 32&#45;&gt;33 -->
<g id="edge30" class="edge">
<title>32&#45;&gt;33</title>
<path fill="none" stroke="black" d="M1381.84,-287.7C1372.68,-279.37 1361.52,-269.22 1351.45,-260.07"/>
<polygon fill="black" stroke="black" points="1353.83,-257.5 1344.08,-253.37 1349.12,-262.68 1353.83,-257.5"/>
</g>
<!-- 34 -->
<g id="node35" class="node">
<title>34</title>
<polygon fill="none" stroke="black" points="1583.25,-252 1374.5,-252 1374.5,-216 1583.25,-216 1583.25,-252"/>
<text text-anchor="middle" x="1478.88" y="-227.82" font-family="Times,serif" font-size="14.00">&quot;Kind: CURLY_GROUP_WORD&quot;</text>
</g>
<!-- 32&#45;&gt;34 -->
<g id="edge35" class="edge">
<title>32&#45;&gt;34</title>
<path fill="none" stroke="black" d="M1420.16,-287.7C1429.53,-279.28 1440.97,-269.02 1451.25,-259.79"/>
<polygon fill="black" stroke="black" points="1453.31,-262.64 1458.42,-253.36 1448.64,-257.43 1453.31,-262.64"/>
</g>
<!-- 35 -->
<g id="node36" class="node">
<title>35</title>
<polygon fill="none" stroke="black" points="1415.88,-180 1361.88,-180 1361.88,-144 1415.88,-144 1415.88,-180"/>
<text text-anchor="middle" x="1388.88" y="-155.82" font-family="Times,serif" font-size="14.00">&quot;{&quot;</text>
</g>
<!-- 34&#45;&gt;35 -->
<g id="edge31" class="edge">
<title>34&#45;&gt;35</title>
<path fill="none" stroke="black" d="M1456.63,-215.7C1445.59,-207.11 1432.08,-196.61 1420.04,-187.24"/>
<polygon fill="black" stroke="black" points="1422.42,-184.65 1412.37,-181.28 1418.12,-190.18 1422.42,-184.65"/>
</g>
<!-- 36 -->
<g id="node37" class="node">
<title>36</title>
<polygon fill="none" stroke="black" points="1524,-180 1433.75,-180 1433.75,-144 1524,-144 1524,-180"/>
<text text-anchor="middle" x="1478.88" y="-155.82" font-family="Times,serif" font-size="14.00">&quot;Kind: KEY&quot;</text>
</g>
<!-- 34&#45;&gt;36 -->
<g id="edge33" class="edge">
<title>34&#45;&gt;36</title>
<path fill="none" stroke="black" d="M1478.88,-215.7C1478.88,-208.41 1478.88,-199.73 1478.88,-191.54"/>
<polygon fill="black" stroke="black" points="1482.38,-191.62 1478.88,-181.62 1475.38,-191.62 1482.38,-191.62"/>
</g>
<!-- 38 -->
<g id="node39" class="node">
<title>38</title>
<polygon fill="none" stroke="black" points="1595.88,-180 1541.88,-180 1541.88,-144 1595.88,-144 1595.88,-180"/>
<text text-anchor="middle" x="1568.88" y="-155.82" font-family="Times,serif" font-size="14.00">&quot;}&quot;</text>
</g>
<!-- 34&#45;&gt;38 -->
<g id="edge34" class="edge">
<title>34&#45;&gt;38</title>
<path fill="none" stroke="black" d="M1501.12,-215.7C1512.16,-207.11 1525.67,-196.61 1537.71,-187.24"/>
<polygon fill="black" stroke="black" points="1539.63,-190.18 1545.38,-181.28 1535.33,-184.65 1539.63,-190.18"/>
</g>
<!-- 37 -->
<g id="node38" class="node">
<title>37</title>
<polygon fill="none" stroke="black" points="1516.12,-108 1441.62,-108 1441.62,-72 1516.12,-72 1516.12,-108"/>
<text text-anchor="middle" x="1478.88" y="-83.83" font-family="Times,serif" font-size="14.00">&quot;equation&quot;</text>
</g>
<!-- 36&#45;&gt;37 -->
<g id="edge32" class="edge">
<title>36&#45;&gt;37</title>
<path fill="none" stroke="black" d="M1478.88,-143.7C1478.88,-136.41 1478.88,-127.73 1478.88,-119.54"/>
<polygon fill="black" stroke="black" points="1482.38,-119.62 1478.88,-109.62 1475.38,-119.62 1482.38,-119.62"/>
</g>
<!-- 40 -->
<g id="node41" class="node">
<title>40</title>
<polygon fill="none" stroke="black" points="1654.88,-252 1600.88,-252 1600.88,-216 1654.88,-216 1654.88,-252"/>
<text text-anchor="middle" x="1627.88" y="-227.82" font-family="Times,serif" font-size="14.00">&quot;E&quot;</text>
</g>
<!-- 39&#45;&gt;40 -->
<g id="edge37" class="edge">
<title>39&#45;&gt;40</title>
<path fill="none" stroke="black" d="M1546.1,-287.52C1559.86,-278.68 1576.74,-267.84 1591.59,-258.3"/>
<polygon fill="black" stroke="black" points="1593.2,-261.43 1599.72,-253.08 1589.42,-255.54 1593.2,-261.43"/>
</g>
<!-- 43 -->
<g id="node44" class="node">
<title>43</title>
<polygon fill="none" stroke="black" points="1733.25,-252 1674.5,-252 1674.5,-216 1733.25,-216 1733.25,-252"/>
<text text-anchor="middle" x="1703.88" y="-227.82" font-family="Times,serif" font-size="14.00">&quot;mc^2&quot;</text>
</g>
<!-- 42&#45;&gt;43 -->
<g id="edge40" class="edge">
<title>42&#45;&gt;43</title>
<path fill="none" stroke="black" d="M1706.13,-287.7C1705.82,-280.41 1705.45,-271.73 1705.1,-263.54"/>
<polygon fill="black" stroke="black" points="1708.6,-263.46 1704.67,-253.62 1701.6,-263.76 1708.6,-263.46"/>
</g>
<!-- 45 -->
<g id="node46" class="node">
<title>45</title>
<polygon fill="none" stroke="black" points="1806.38,-252 1751.38,-252 1751.38,-216 1806.38,-216 1806.38,-252"/>
<text text-anchor="middle" x="1778.88" y="-227.82" font-family="Times,serif" font-size="14.00">&quot;\\end&quot;</text>
</g>
<!-- 44&#45;&gt;45 -->
<g id="edge42" class="edge">
<title>44&#45;&gt;45</title>
<path fill="none" stroke="black" d="M1808.99,-287.7C1804.53,-279.9 1799.17,-270.51 1794.21,-261.83"/>
<polygon fill="black" stroke="black" points="1797.4,-260.36 1789.4,-253.42 1791.32,-263.84 1797.4,-260.36"/>
</g>
<!-- 46 -->
<g id="node47" class="node">
<title>46</title>
<polygon fill="none" stroke="black" points="2033.25,-252 1824.5,-252 1824.5,-216 2033.25,-216 2033.25,-252"/>
<text text-anchor="middle" x="1928.88" y="-227.82" font-family="Times,serif" font-size="14.00">&quot;Kind: CURLY_GROUP_WORD&quot;</text>
</g>
<!-- 44&#45;&gt;46 -->
<g id="edge47" class="edge">
<title>44&#45;&gt;46</title>
<path fill="none" stroke="black" d="M1846.35,-287.52C1860.23,-278.68 1877.27,-267.84 1892.26,-258.3"/>
<polygon fill="black" stroke="black" points="1893.92,-261.39 1900.47,-253.07 1890.16,-255.49 1893.92,-261.39"/>
</g>
<!-- 47 -->
<g id="node48" class="node">
<title>47</title>
<polygon fill="none" stroke="black" points="1865.88,-180 1811.88,-180 1811.88,-144 1865.88,-144 1865.88,-180"/>
<text text-anchor="middle" x="1838.88" y="-155.82" font-family="Times,serif" font-size="14.00">&quot;{&quot;</text>
</g>
<!-- 46&#45;&gt;47 -->
<g id="edge43" class="edge">
<title>46&#45;&gt;47</title>
<path fill="none" stroke="black" d="M1906.63,-215.7C1895.59,-207.11 1882.08,-196.61 1870.04,-187.24"/>
<polygon fill="black" stroke="black" points="1872.42,-184.65 1862.37,-181.28 1868.12,-190.18 1872.42,-184.65"/>
</g>
<!-- 48 -->
<g id="node49" class="node">
<title>48</title>
<polygon fill="none" stroke="black" points="1974,-180 1883.75,-180 1883.75,-144 1974,-144 1974,-180"/>
<text text-anchor="middle" x="1928.88" y="-155.82" font-family="Times,serif" font-size="14.00">&quot;Kind: KEY&quot;</text>
</g>
<!-- 46&#45;&gt;48 -->
<g id="edge45" class="edge">
<title>46&#45;&gt;48</title>
<path fill="none" stroke="black" d="M1928.88,-215.7C1928.88,-208.41 1928.88,-199.73 1928.88,-191.54"/>
<polygon fill="black" stroke="black" points="1932.38,-191.62 1928.88,-181.62 1925.38,-191.62 1932.38,-191.62"/>
</g>
<!-- 50 -->
<g id="node51" class="node">
<title>50</title>
<polygon fill="none" stroke="black" points="2045.88,-180 1991.88,-180 1991.88,-144 2045.88,-144 2045.88,-180"/>
<text text-anchor="middle" x="2018.88" y="-155.82" font-family="Times,serif" font-size="14.00">&quot;}&quot;</text>
</g>
<!-- 46&#45;&gt;50 -->
<g id="edge46" class="edge">
<title>46&#45;&gt;50</title>
<path fill="none" stroke="black" d="M1951.12,-215.7C1962.16,-207.11 1975.67,-196.61 1987.71,-187.24"/>
<polygon fill="black" stroke="black" points="1989.63,-190.18 1995.38,-181.28 1985.33,-184.65 1989.63,-190.18"/>
</g>
<!-- 49 -->
<g id="node50" class="node">
<title>49</title>
<polygon fill="none" stroke="black" points="1966.12,-108 1891.62,-108 1891.62,-72 1966.12,-72 1966.12,-108"/>
<text text-anchor="middle" x="1928.88" y="-83.83" font-family="Times,serif" font-size="14.00">&quot;equation&quot;</text>
</g>
<!-- 48&#45;&gt;49 -->
<g id="edge44" class="edge">
<title>48&#45;&gt;49</title>
<path fill="none" stroke="black" d="M1928.88,-143.7C1928.88,-136.41 1928.88,-127.73 1928.88,-119.54"/>
<polygon fill="black" stroke="black" points="1932.38,-119.62 1928.88,-109.62 1925.38,-119.62 1932.38,-119.62"/>
</g>
<!-- 52 -->
<g id="node53" class="node">
<title>52</title>
<polygon fill="none" stroke="black" points="1991.38,-324 1936.38,-324 1936.38,-288 1991.38,-288 1991.38,-324"/>
<text text-anchor="middle" x="1963.88" y="-299.82" font-family="Times,serif" font-size="14.00">&quot;\\end&quot;</text>
</g>
<!-- 51&#45;&gt;52 -->
<g id="edge50" class="edge">
<title>51&#45;&gt;52</title>
<path fill="none" stroke="black" d="M1963.88,-359.7C1963.88,-352.41 1963.88,-343.73 1963.88,-335.54"/>
<polygon fill="black" stroke="black" points="1967.38,-335.62 1963.88,-325.62 1960.38,-335.62 1967.38,-335.62"/>
</g>
<!-- 53 -->
<g id="node54" class="node">
<title>53</title>
<polygon fill="none" stroke="black" points="2272.25,-324 2063.5,-324 2063.5,-288 2272.25,-288 2272.25,-324"/>
<text text-anchor="middle" x="2167.88" y="-299.82" font-family="Times,serif" font-size="14.00">&quot;Kind: CURLY_GROUP_WORD&quot;</text>
</g>
<!-- 51&#45;&gt;53 -->
<g id="edge56" class="edge">
<title>51&#45;&gt;53</title>
<path fill="none" stroke="black" d="M2009.4,-361.38C2037.97,-351.57 2075.18,-338.81 2106.36,-328.11"/>
<polygon fill="black" stroke="black" points="2107.36,-331.47 2115.68,-324.91 2105.09,-324.85 2107.36,-331.47"/>
</g>
<!-- 54 -->
<g id="node55" class="node">
<title>54</title>
<polygon fill="none" stroke="black" points="2104.88,-252 2050.88,-252 2050.88,-216 2104.88,-216 2104.88,-252"/>
<text text-anchor="middle" x="2077.88" y="-227.82" font-family="Times,serif" font-size="14.00">&quot;{&quot;</text>
</g>
<!-- 53&#45;&gt;54 -->
<g id="edge51" class="edge">
<title>53&#45;&gt;54</title>
<path fill="none" stroke="black" d="M2145.63,-287.7C2134.59,-279.11 2121.08,-268.61 2109.04,-259.24"/>
<polygon fill="black" stroke="black" points="2111.42,-256.65 2101.37,-253.28 2107.12,-262.18 2111.42,-256.65"/>
</g>
<!-- 55 -->
<g id="node56" class="node">
<title>55</title>
<polygon fill="none" stroke="black" points="2213,-252 2122.75,-252 2122.75,-216 2213,-216 2213,-252"/>
<text text-anchor="middle" x="2167.88" y="-227.82" font-family="Times,serif" font-size="14.00">&quot;Kind: KEY&quot;</text>
</g>
<!-- 53&#45;&gt;55 -->
<g id="edge53" class="edge">
<title>53&#45;&gt;55</title>
<path fill="none" stroke="black" d="M2167.88,-287.7C2167.88,-280.41 2167.88,-271.73 2167.88,-263.54"/>
<polygon fill="black" stroke="black" points="2171.38,-263.62 2167.88,-253.62 2164.38,-263.62 2171.38,-263.62"/>
</g>
<!-- 57 -->
<g id="node58" class="node">
<title>57</title>
<polygon fill="none" stroke="black" points="2284.88,-252 2230.88,-252 2230.88,-216 2284.88,-216 2284.88,-252"/>
<text text-anchor="middle" x="2257.88" y="-227.82" font-family="Times,serif" font-size="14.00">&quot;}&quot;</text>
</g>
<!-- 53&#45;&gt;57 -->
<g id="edge54" class="edge">
<title>53&#45;&gt;57</title>
<path fill="none" stroke="black" d="M2190.12,-287.7C2201.16,-279.11 2214.67,-268.61 2226.71,-259.24"/>
<polygon fill="black" stroke="black" points="2228.63,-262.18 2234.38,-253.28 2224.33,-256.65 2228.63,-262.18"/>
</g>
<!-- 58 -->
<g id="node59" class="node">
<title>58</title>
<polygon fill="none" stroke="black" points="2356.88,-252 2302.88,-252 2302.88,-216 2356.88,-216 2356.88,-252"/>
<text text-anchor="middle" x="2329.88" y="-227.82" font-family="Times,serif" font-size="14.00">&quot;\n&quot;</text>
</g>
<!-- 53&#45;&gt;58 -->
<g id="edge55" class="edge">
<title>53&#45;&gt;58</title>
<path fill="none" stroke="black" d="M2210.65,-287.54C2232.74,-278.41 2260.32,-266.82 2291.99,-252.77"/>
<polygon fill="black" stroke="black" points="2293.32,-256 2301.03,-248.73 2290.47,-249.61 2293.32,-256"/>
</g>
<!-- 56 -->
<g id="node57" class="node">
<title>56</title>
<polygon fill="none" stroke="black" points="2208.88,-180 2126.88,-180 2126.88,-144 2208.88,-144 2208.88,-180"/>
<text text-anchor="middle" x="2167.88" y="-155.82" font-family="Times,serif" font-size="14.00">&quot;document&quot;</text>
</g>
<!-- 55&#45;&gt;56 -->
<g id="edge52" class="edge">
<title>55&#45;&gt;56</title>
<path fill="none" stroke="black" d="M2167.88,-215.7C2167.88,-208.41 2167.88,-199.73 2167.88,-191.54"/>
<polygon fill="black" stroke="black" points="2171.38,-191.62 2167.88,-181.62 2164.38,-191.62 2171.38,-191.62"/>
</g>
</g>
</svg>
